<?xml version="1.0" standalone="no"?>
<!DOCTYPE svg PUBLIC "-//W3C//DTD SVG 20010904//EN"
 "http://www.w3.org/TR/2001/REC-SVG-20010904/DTD/svg10.dtd">
<svg version="1.0" xmlns="http://www.w3.org/2000/svg"
 width="2000.000000pt" height="1999.000000pt" viewBox="0 0 2000.000000 1999.000000"
 preserveAspectRatio="xMidYMid meet">

<g transform="translate(0.000000,1999.000000) scale(0.100000,-0.100000)"
fill="#000000" stroke="none">
<path d="M6602 14497 c-40 -18 -64 -81 -64 -161 0 -56 12 -112 56 -266 53
-181 297 -925 317 -961 5 -9 68 -38 144 -64 142 -50 155 -60 155 -114 0 -50
-38 -71 -131 -71 -44 0 -79 -2 -79 -5 0 -22 181 -481 221 -560 105 -207 222
-353 378 -470 97 -73 307 -185 349 -185 25 0 34 -14 109 -158 l81 -157 126 -3
c79 -2 126 1 126 7 0 6 -47 100 -104 209 l-104 199 18 54 c50 146 48 431 -4
625 -27 97 -104 285 -121 291 -6 2 -26 -43 -45 -99 -19 -56 -42 -110 -52 -120
-25 -25 -62 -22 -94 6 l-28 23 -5 279 -6 279 -134 190 c-152 215 -363 504
-395 542 l-22 25 -25 -63 c-28 -71 -56 -91 -106 -73 -46 16 -53 44 -53 225 l0
165 -72 90 c-102 126 -192 230 -232 264 -67 60 -151 83 -204 57z"/>
<path d="M9279 13838 c-1 -2 -18 -187 -38 -413 l-36 -410 -100 -5 c-110 -6
-137 -16 -153 -57 -6 -15 -43 -368 -82 -783 -38 -415 -73 -772 -76 -792 l-6
-38 55 0 c65 0 162 -44 203 -93 58 -69 67 -106 71 -307 l4 -185 61 -182 c33
-101 63 -183 66 -183 89 -1 430 -24 527 -35 458 -53 827 -173 1105 -360 98
-66 188 -141 158 -131 -81 25 -1759 448 -1763 444 -8 -8 89 -280 101 -285 7
-2 392 -102 855 -222 l844 -217 310 79 c171 43 490 125 710 181 220 57 617
159 882 227 l483 124 0 31 c0 43 -249 2683 -255 2712 -3 13 -18 35 -32 48 -24
22 -34 24 -124 24 -94 0 -99 1 -103 23 -2 12 -19 177 -36 367 -17 190 -34 367
-37 393 l-6 48 -76 -7 c-639 -52 -1183 -215 -1627 -486 l-90 -55 -100 59
c-408 244 -869 393 -1406 457 -208 25 -288 33 -289 29z m366 -298 c511 -69
924 -227 1371 -525 l52 -34 83 55 c347 232 680 374 1079 458 120 25 382 67
388 62 4 -4 28 -257 57 -591 28 -327 201 -2194 209 -2262 l5 -41 -127 -6
c-322 -16 -652 -56 -842 -102 -274 -66 -547 -178 -754 -308 l-89 -56 -80 51
c-45 29 -140 80 -211 115 -373 178 -758 263 -1331 294 -110 6 -202 13 -204 16
-2 2 40 471 93 1041 53 571 105 1142 116 1268 27 317 51 558 55 573 3 7 14 10
27 8 13 -3 59 -10 103 -16z m3474 -3154 c-2 -2 -128 -36 -279 -74 -151 -39
-602 -154 -1001 -256 -399 -102 -729 -186 -733 -186 -15 0 80 74 176 137 169
111 396 208 625 268 182 48 510 95 738 108 93 5 479 7 474 3z"/>
<path d="M7673 11126 l-28 -24 -3 -184 c-3 -147 -1 -181 9 -170 17 16 560 18
590 2 23 -13 49 -61 49 -90 0 -12 -13 -35 -29 -51 l-29 -29 -320 0 -320 0 -49
-142 c-190 -548 -226 -663 -219 -699 9 -49 43 -98 86 -123 34 -21 49 -21 830
-24 437 -2 818 0 847 3 86 10 150 67 160 142 4 33 -21 116 -153 504 l-158 464
-6 198 -5 199 -28 24 -28 24 -584 0 -584 0 -28 -24z"/>
<path d="M13202 8364 c-34 -247 -50 -265 -214 -242 -70 11 -101 12 -103 4 -8
-26 -27 -188 -22 -192 2 -3 57 -13 121 -23 64 -10 118 -20 120 -22 3 -2 -31
-249 -75 -549 -89 -603 -90 -630 -42 -708 46 -75 96 -96 302 -127 96 -14 175
-24 176 -23 4 5 25 158 25 182 0 21 -7 23 -152 45 -84 12 -153 23 -154 24 -1
1 35 254 80 562 l82 560 35 -3 c18 -2 92 -12 163 -23 71 -11 132 -16 136 -12
7 8 30 152 30 184 0 13 -31 20 -165 40 -152 21 -165 25 -165 44 1 11 14 106
29 210 16 105 27 192 25 194 -4 5 -168 30 -194 31 -13 0 -20 -32 -38 -156z"/>
<path d="M10155 8340 c-22 -5 -67 -18 -100 -31 -79 -29 -188 -136 -230 -226
l-29 -63 -34 65 c-47 88 -130 164 -218 199 -144 58 -321 58 -435 1 -67 -35
-139 -110 -181 -191 -18 -35 -36 -64 -40 -64 -5 0 -8 56 -8 125 l0 125 -120 0
-120 0 0 -87 c0 -49 7 -349 15 -668 8 -319 15 -631 15 -694 l0 -114 115 5 c64
3 118 8 121 11 4 3 1 251 -6 550 -7 299 -10 564 -6 589 14 92 95 175 210 215
37 13 81 18 161 18 103 0 113 -2 165 -30 68 -38 113 -96 141 -183 23 -74 31
-232 44 -835 l7 -318 117 7 c64 3 117 8 119 9 1 1 -3 254 -10 561 -14 648 -16
627 67 710 77 77 139 98 290 99 115 0 122 -1 174 -30 91 -50 141 -139 160
-281 6 -43 15 -297 21 -564 7 -267 12 -485 13 -485 1 0 55 1 120 3 l118 3 -6
232 c-25 918 -23 878 -45 962 -29 115 -65 182 -134 251 -66 65 -118 95 -211
119 -62 16 -192 18 -260 5z"/>
<path d="M11725 8254 c-197 -44 -358 -178 -456 -379 -95 -197 -123 -485 -69
-702 26 -102 97 -245 155 -311 59 -66 156 -136 234 -167 135 -55 341 -68 481
-30 131 35 279 136 350 240 l30 43 -82 69 c-46 38 -83 63 -85 56 -8 -22 -80
-108 -110 -129 -117 -86 -269 -115 -422 -79 -220 52 -357 257 -334 502 6 63 6
63 37 63 17 -1 267 -20 556 -44 289 -24 526 -42 528 -41 2 2 6 62 9 133 7 146
-5 243 -42 353 -70 206 -230 359 -431 414 -87 23 -263 28 -349 9z m257 -195
c200 -43 318 -204 318 -437 l0 -83 -57 6 c-46 5 -788 65 -800 65 -8 0 -1 71
12 119 64 243 285 381 527 330z"/>
<path d="M4610 8240 c-177 -44 -813 -209 -815 -212 -3 -3 515 -2029 521 -2036
1 -2 56 11 122 29 l120 32 -8 31 c-80 304 -210 818 -210 828 0 8 27 20 73 32
495 127 567 148 645 187 247 121 342 366 261 676 -58 222 -190 379 -366 433
-85 26 -237 26 -343 0z m246 -215 c104 -31 156 -104 204 -287 39 -146 40 -225
4 -296 -30 -60 -69 -96 -139 -128 -63 -29 -637 -177 -645 -167 -4 5 -46 163
-95 353 -49 190 -90 352 -92 361 -3 11 4 19 19 23 307 82 613 155 649 156 25
0 68 -7 95 -15z"/>
<path d="M7460 8214 c-70 -11 -140 -28 -185 -47 -192 -80 -324 -233 -391 -452
-25 -81 -27 -106 -28 -245 -1 -167 14 -262 60 -394 48 -139 143 -273 247 -351
128 -97 231 -130 402 -129 197 0 341 53 465 170 157 149 230 333 230 584 0
445 -226 784 -572 854 -71 15 -166 19 -228 10z m245 -233 c116 -41 203 -131
245 -254 21 -61 52 -266 65 -422 19 -236 -83 -408 -282 -474 -273 -90 -522 41
-586 309 -23 93 -48 320 -48 425 0 195 81 328 247 401 107 47 250 53 359 15z"/>
<path d="M15982 8170 c-65 -40 -98 -170 -56 -227 41 -57 149 -85 207 -54 39
21 71 94 72 163 0 70 -25 101 -99 123 -65 20 -85 19 -124 -5z"/>
<path d="M6480 8063 c-58 -10 -175 -45 -212 -64 -50 -25 -140 -109 -170 -156
-11 -19 -29 -60 -38 -91 -10 -31 -22 -58 -27 -59 -5 -2 -20 55 -33 126 -13 71
-26 134 -29 139 -8 12 -231 -29 -231 -43 1 -27 278 -1506 283 -1511 10 -11
219 28 223 41 3 7 -38 245 -91 530 -52 285 -95 531 -95 547 0 66 59 151 144
205 57 37 149 68 259 89 111 20 105 10 81 135 -18 101 -23 119 -32 118 -4 -1
-18 -4 -32 -6z"/>
<path d="M14415 7844 c-289 -70 -503 -356 -555 -742 -15 -109 -8 -271 15 -357
84 -318 338 -506 685 -507 97 0 127 4 195 26 102 33 193 87 261 155 l53 54
-70 77 -71 77 -56 -57 c-112 -111 -257 -151 -424 -116 -182 39 -309 155 -353
321 -8 33 -15 82 -15 109 0 58 19 177 30 189 4 5 247 -41 539 -102 292 -61
537 -111 545 -111 24 0 51 168 51 320 0 113 -4 147 -24 210 -60 195 -160 316
-328 399 -132 66 -336 89 -478 55z m338 -214 c145 -55 240 -182 254 -339 6
-62 -3 -179 -15 -198 -5 -7 -133 15 -422 76 l-415 87 2 39 c2 22 19 72 38 113
56 118 166 212 282 242 63 16 211 5 276 -20z"/>
<path d="M15804 7546 c-2 -6 -114 -423 -249 -926 -135 -503 -248 -922 -250
-931 -5 -15 -17 -13 -113 12 -59 16 -114 29 -123 29 -12 0 -23 -25 -41 -92
-14 -51 -22 -96 -19 -100 12 -14 207 -58 256 -58 115 0 219 71 271 183 22 49
494 1787 494 1820 0 18 -220 80 -226 63z"/>
</g>
</svg>
